<svg width="435" height="154" viewBox="0 0 435 154" fill="none" xmlns="http://www.w3.org/2000/svg">
<path d="M268.331 36.02V95.0576C268.331 102.425 266.109 108.431 261.665 113.075C257.22 117.72 251.475 120.042 244.428 120.042C235.939 120.042 229.453 116.178 224.969 108.451C222.206 112.615 219.243 115.598 216.08 117.399C212.917 119.161 209.013 120.042 204.369 120.042C197.001 120.042 191.356 117.72 187.432 113.075C183.508 108.431 181.546 101.744 181.546 93.0156V36.02H205.93V89.3521C205.93 91.9946 206.13 93.7363 206.531 94.5771C206.971 95.418 207.832 95.8384 209.113 95.8384C211.516 95.8384 212.717 93.8164 212.717 89.7725V36.02H237.101V89.3521C237.101 91.9146 237.321 93.6362 237.761 94.5171C238.202 95.3979 239.062 95.8384 240.344 95.8384C242.746 95.8384 243.947 93.6763 243.947 89.3521V36.02H268.331ZM322.023 33.978C333.635 33.978 343.584 38.2021 351.873 46.6504C360.201 55.0986 364.365 65.2085 364.365 76.98C364.365 88.9517 360.181 99.1216 351.812 107.49C343.444 115.858 333.274 120.042 321.303 120.042C309.411 120.042 299.261 115.838 290.853 107.43C282.445 99.0215 278.241 88.8716 278.241 76.98C278.241 64.9683 282.465 54.7983 290.913 46.4702C299.401 38.1421 309.771 33.978 322.023 33.978ZM321.303 58.1216C316.298 58.1216 312.034 59.9634 308.51 63.647C304.987 67.3306 303.225 71.7749 303.225 76.98C303.225 82.1851 304.987 86.6294 308.51 90.313C312.074 93.9966 316.338 95.8384 321.303 95.8384C326.348 95.8384 330.612 94.0166 334.095 90.373C337.619 86.6895 339.38 82.2251 339.38 76.98C339.38 71.7349 337.619 67.2905 334.095 63.647C330.612 59.9634 326.348 58.1216 321.303 58.1216ZM434.813 36.02L399.079 122.685L363.584 36.02H391.812L399.319 61.605L407.607 36.02H434.813Z" fill="#17171A"/>
<g clip-path="url(#clip0_1231_867)">
<rect width="154" height="154" rx="77" fill="#229EBD"/>
<rect width="154" height="154" rx="77" fill="url(#paint0_linear_1231_867)"/>
<line x1="10" y1="122.518" x2="145" y2="122.518" stroke="#F5F8F7" stroke-width="2"/>
</g>
<path d="M56.918 54.6797C64.4686 56.8194 70 63.7639 70 72C70 81.9411 61.9411 90 52 90C42.0589 90 34 81.9411 34 72C34 64.453 38.6447 57.9913 45.2314 55.3164L23.6016 47.8926C21.9499 47.3257 20.6271 46.0676 19.9785 44.4463L19 42L56.918 54.6797Z" fill="#F5F8F7"/>
<circle cx="52" cy="72" r="8" fill="#023048"/>
<circle opacity="0.99" cx="56" cy="69" r="3" fill="#F5F8F7"/>
<path d="M97.082 54.6797C89.5314 56.8194 84 63.7639 84 72C84 81.9411 92.0589 90 102 90C111.941 90 120 81.9411 120 72C120 64.453 115.355 57.9913 108.769 55.3164L130.398 47.8926C132.05 47.3257 133.373 46.0676 134.021 44.4463L135 42L97.082 54.6797Z" fill="#F5F8F7"/>
<circle cx="102" cy="72" r="8" fill="#023048"/>
<circle opacity="0.99" cx="106" cy="69" r="3" fill="#F5F8F7"/>
<path d="M77 51L56 45L77 62L98 45L77 51Z" fill="#F5F8F7"/>
<path d="M80 95L77 90L74 95H77.0003H80Z" fill="white"/>
<path d="M74 95L77 100L80 95L77.4 95L74 95Z" fill="white"/>
<path d="M93 46.5166L92.9951 46.54C82.5108 50.2479 74.999 60.2458 74.999 72C74.999 86.9117 87.0873 99 101.999 99C116.911 99 128.999 86.9117 128.999 72C128.999 71.6195 128.99 71.2409 128.975 70.8643C128.219 64.2135 124.338 60.9221 121.587 59.165C124.057 62.8311 125.5 67.2468 125.5 72C125.5 84.7024 115.202 94.9999 102.5 95C89.7975 95 79.5001 84.7024 79.5 72C79.5 59.2975 89.7975 49 102.5 49C102.599 49 102.698 49.0027 102.797 49.0039C101.333 48.879 100.033 48.8931 98.999 49L106.987 46.2041L139.308 35.8613C141.013 35.3157 142.385 34.0371 143.05 32.375L144 30L93 46.5166Z" fill="#F5F8F7"/>
<path d="M61 46.5166L61.0049 46.54C71.4892 50.2479 79.001 60.2458 79.001 72C79.001 86.9117 66.9127 99 52.001 99C37.0893 99 25.001 86.9117 25.001 72C25.001 71.6195 25.0098 71.2409 25.0254 70.8643C25.7807 64.2135 29.6623 60.9221 32.4131 59.165C29.9428 62.8311 28.5 67.2468 28.5 72C28.5001 84.7024 38.7976 94.9999 51.5 95C64.2025 95 74.4999 84.7024 74.5 72C74.5 59.2975 64.2025 49 51.5 49C51.4009 49 51.3019 49.0027 51.2031 49.0039C52.6674 48.879 53.9675 48.8931 55.001 49L47.0127 46.2041L14.6924 35.8613C12.9874 35.3157 11.615 34.0371 10.9502 32.375L10 30L61 46.5166Z" fill="#F5F8F7"/>
<path d="M102 48L96 50L103 49L102 48Z" fill="#023048"/>
<path d="M52 48L58 50L51 49L52 48Z" fill="#023048"/>
<g filter="url(#filter0_d_1231_867)">
<path d="M90.2188 112H85.4688C84.4854 112 83.6875 112.816 83.6875 113.821V118.679C83.6875 119.684 84.4854 120.5 85.4688 120.5H88.4375V122.929C88.4375 124.268 87.3725 126.982 86.0625 126.982H85.7656C85.2721 126.982 84.875 127.388 84.875 127.893V129.715C84.875 130.219 85.2721 130.625 85.7656 130.625H86.0625C89.343 130.625 92 126.283 92 122.929V113.821C92 112.816 91.2021 112 90.2188 112ZM79.5312 112H74.7812C73.7979 112 73 112.816 73 113.821V118.679C73 119.684 73.7979 120.5 74.7812 120.5H77.75V122.929C77.75 124.268 76.685 126.982 75.375 126.982H75.0781C74.5846 126.982 74.1875 127.388 74.1875 127.893V129.715C74.1875 130.219 74.5846 130.625 75.0781 130.625H75.375C78.6555 130.625 81.3125 126.283 81.3125 122.929V113.821C81.3125 112.816 80.5146 112 79.5312 112Z" fill="#F5F8F7"/>
<path d="M118.219 112H113.469C112.485 112 111.688 112.816 111.688 113.821V118.679C111.688 119.684 112.485 120.5 113.469 120.5H116.438V122.929C116.438 124.268 115.372 126.982 114.062 126.982H113.766C113.272 126.982 112.875 127.388 112.875 127.893V129.715C112.875 130.219 113.272 130.625 113.766 130.625H114.062C117.343 130.625 120 126.283 120 122.929V113.821C120 112.816 119.202 112 118.219 112ZM107.531 112H102.781C101.798 112 101 112.816 101 113.821V118.679C101 119.684 101.798 120.5 102.781 120.5H105.75V122.929C105.75 124.268 104.685 126.982 103.375 126.982H103.078C102.585 126.982 102.188 127.388 102.188 127.893V129.715C102.188 130.219 102.585 130.625 103.078 130.625H103.375C106.655 130.625 109.312 126.283 109.312 122.929V113.821C109.312 112.816 108.515 112 107.531 112Z" fill="#F5F8F7"/>
</g>
<defs>
<filter id="filter0_d_1231_867" x="72.5" y="111.5" width="50" height="21.6252" filterUnits="userSpaceOnUse" color-interpolation-filters="sRGB">
<feFlood flood-opacity="0" result="BackgroundImageFix"/>
<feColorMatrix in="SourceAlpha" type="matrix" values="0 0 0 0 0 0 0 0 0 0 0 0 0 0 0 0 0 0 127 0" result="hardAlpha"/>
<feOffset dx="1" dy="1"/>
<feGaussianBlur stdDeviation="0.75"/>
<feComposite in2="hardAlpha" operator="out"/>
<feColorMatrix type="matrix" values="0 0 0 0 0 0 0 0 0 0 0 0 0 0 0 0 0 0 0.25 0"/>
<feBlend mode="normal" in2="BackgroundImageFix" result="effect1_dropShadow_1231_867"/>
<feBlend mode="normal" in="SourceGraphic" in2="effect1_dropShadow_1231_867" result="shape"/>
</filter>
<linearGradient id="paint0_linear_1231_867" x1="55.6868" y1="-26.916" x2="56.7485" y2="174.25" gradientUnits="userSpaceOnUse">
<stop offset="0.682692" stop-color="#023048"/>
<stop offset="1" stop-color="#229EBD"/>
</linearGradient>
<clipPath id="clip0_1231_867">
<rect width="154" height="154" rx="77" fill="white"/>
</clipPath>
</defs>
</svg>
