<svg width="92" height="92" viewBox="0 0 92 92" fill="none" xmlns="http://www.w3.org/2000/svg">
<g clip-path="url(#clip0_1378_1812)">
<mask id="mask0_1378_1812" style="mask-type:luminance" maskUnits="userSpaceOnUse" x="0" y="0" width="92" height="92">
<path d="M92 46C92 20.5949 71.4051 0 46 0C20.5949 0 0 20.5949 0 46C0 71.4051 20.5949 92 46 92C71.4051 92 92 71.4051 92 46Z" fill="white"/>
</mask>
<g mask="url(#mask0_1378_1812)">
<path d="M92 46C92 20.5949 71.4051 0 46 0C20.5949 0 0 20.5949 0 46C0 71.4051 20.5949 92 46 92C71.4051 92 92 71.4051 92 46Z" fill="#229EBD"/>
<path d="M92 46C92 20.5949 71.4051 0 46 0C20.5949 0 0 20.5949 0 46C0 71.4051 20.5949 92 46 92C71.4051 92 92 71.4051 92 46Z" fill="url(#paint0_linear_1378_1812)"/>
<path d="M5.97656 73.1926H86.6259" stroke="#F5F8F7" stroke-width="3"/>
</g>
<path d="M34.0039 32.6658C38.5146 33.944 41.8191 38.0927 41.8191 43.013C41.8191 48.9518 37.0047 53.7662 31.0658 53.7662C25.127 53.7662 20.3126 48.9518 20.3126 43.013C20.3126 38.5044 23.0874 34.6441 27.0223 33.0461L14.1006 28.6111C13.1138 28.2725 12.3236 27.5209 11.9361 26.5523L11.3516 25.0909L34.0039 32.6658Z" fill="#F5F8F7"/>
<path d="M31.0683 47.7922C33.7078 47.7922 35.8475 45.6525 35.8475 43.013C35.8475 40.3735 33.7078 38.2338 31.0683 38.2338C28.4288 38.2338 26.2891 40.3735 26.2891 43.013C26.2891 45.6525 28.4288 47.7922 31.0683 47.7922Z" fill="#023048"/>
<path opacity="0.99" d="M33.4563 43.013C34.4461 43.013 35.2485 42.2106 35.2485 41.2208C35.2485 40.231 34.4461 39.4286 33.4563 39.4286C32.4665 39.4286 31.6641 40.231 31.6641 41.2208C31.6641 42.2106 32.4665 43.013 33.4563 43.013Z" fill="#F5F8F7"/>
<path d="M57.9949 32.6658C53.4842 33.944 50.1797 38.0927 50.1797 43.013C50.1797 48.9518 54.9941 53.7662 60.9329 53.7662C66.8717 53.7662 71.6862 48.9518 71.6862 43.013C71.6862 38.5044 68.9112 34.6441 64.9768 33.0461L77.898 28.6111C78.8849 28.2725 79.6752 27.5209 80.0624 26.5523L80.6472 25.0909L57.9949 32.6658Z" fill="#F5F8F7"/>
<path d="M60.9355 47.7922C63.575 47.7922 65.7147 45.6525 65.7147 43.013C65.7147 40.3735 63.575 38.2338 60.9355 38.2338C58.296 38.2338 56.1562 40.3735 56.1562 43.013C56.1562 45.6525 58.296 47.7922 60.9355 47.7922Z" fill="#023048"/>
<path opacity="0.99" d="M63.3235 43.013C64.3133 43.013 65.1157 42.2106 65.1157 41.2208C65.1157 40.231 64.3133 39.4286 63.3235 39.4286C62.3336 39.4286 61.5312 40.231 61.5312 41.2208C61.5312 42.2106 62.3336 43.013 63.3235 43.013Z" fill="#F5F8F7"/>
<path d="M45.9986 30.4675L33.4531 26.8831L45.9986 37.039L58.544 26.8831L45.9986 30.4675Z" fill="#F5F8F7"/>
<path d="M47.7954 56.7532L46.0031 53.7662L44.2109 56.7532H46.0033H47.7954Z" fill="white"/>
<path d="M44.2109 56.7532L46.0031 59.7402L47.7954 56.7532H46.2421H44.2109Z" fill="white"/>
<path d="M55.5585 27.7891L55.5556 27.8031C49.2923 30.0182 44.8047 35.991 44.8047 43.013C44.8047 51.9213 52.0263 59.1428 60.9346 59.1428C69.843 59.1428 77.0644 51.9213 77.0644 43.013C77.0644 42.7857 77.0591 42.5595 77.0501 42.3345C76.5985 38.3613 74.2799 36.395 72.6365 35.3453C74.1121 37.5354 74.9741 40.1734 74.9741 43.013C74.9741 50.6014 68.8221 56.7532 61.2339 56.7532C53.6453 56.7532 47.4937 50.6014 47.4936 43.013C47.4936 35.4245 53.6453 29.2727 61.2339 29.2727C61.293 29.2727 61.3521 29.2743 61.4113 29.275C60.5367 29.2004 59.7601 29.2088 59.1424 29.2727L63.9144 27.6024L83.2231 21.4236C84.2416 21.0977 85.0613 20.3338 85.4585 19.3409L86.0261 17.9221L55.5585 27.7891Z" fill="#F5F8F7"/>
<path d="M36.4441 27.7891L36.447 27.8031C42.7104 30.0182 47.1979 35.991 47.1979 43.013C47.1979 51.9213 39.9764 59.1428 31.0681 59.1428C22.1598 59.1428 14.9382 51.9213 14.9382 43.013C14.9382 42.7857 14.9435 42.5595 14.9528 42.3345C15.404 38.3613 17.7229 36.395 19.3662 35.3453C17.8904 37.5354 17.0285 40.1734 17.0285 43.013C17.0286 50.6014 23.1803 56.7532 30.7688 56.7532C38.3573 56.7532 44.509 50.6014 44.509 43.013C44.509 35.4245 38.3573 29.2727 30.7688 29.2727C30.7096 29.2727 30.6504 29.2743 30.5914 29.275C31.4662 29.2004 32.2429 29.2088 32.8603 29.2727L28.088 27.6024L8.77981 21.4236C7.76124 21.0977 6.94137 20.3338 6.54421 19.3409L5.97656 17.9221L36.4441 27.7891Z" fill="#F5F8F7"/>
<path d="M60.936 28.6753L57.3516 29.8701L61.5334 29.2727L60.936 28.6753Z" fill="#023048"/>
<path d="M31.0662 28.6753L34.6506 29.8701L30.4688 29.2727L31.0662 28.6753Z" fill="#023048"/>
<g filter="url(#filter0_d_1378_1812)">
<path d="M53.8959 65.9091H51.0583C50.4708 65.9091 49.9941 66.3965 49.9941 66.9969V69.8991C49.9941 70.4995 50.4708 70.987 51.0583 70.987H52.8318V72.4381C52.8318 73.238 52.1955 74.8593 51.4129 74.8593H51.2356C50.9408 74.8593 50.7035 75.1019 50.7035 75.4036V76.492C50.7035 76.7931 50.9408 77.0357 51.2356 77.0357H51.4129C53.3727 77.0357 54.96 74.4418 54.96 72.4381V66.9969C54.96 66.3965 54.4834 65.9091 53.8959 65.9091ZM47.5111 65.9091H44.6735C44.086 65.9091 43.6094 66.3965 43.6094 66.9969V69.8991C43.6094 70.4995 44.086 70.987 44.6735 70.987H46.447V72.4381C46.447 73.238 45.8108 74.8593 45.0282 74.8593H44.8508C44.556 74.8593 44.3188 75.1019 44.3188 75.4036V76.492C44.3188 76.7931 44.556 77.0357 44.8508 77.0357H45.0282C46.988 77.0357 48.5753 74.4418 48.5753 72.4381V66.9969C48.5753 66.3965 48.0986 65.9091 47.5111 65.9091Z" fill="#F5F8F7"/>
<path d="M70.6226 65.9091H67.785C67.1971 65.9091 66.721 66.3965 66.721 66.9969V69.8991C66.721 70.4995 67.1971 70.987 67.785 70.987H69.5586V72.4381C69.5586 73.238 68.9218 74.8593 68.1392 74.8593H67.9624C67.6673 74.8593 67.4301 75.1019 67.4301 75.4036V76.492C67.4301 76.7931 67.6673 77.0357 67.9624 77.0357H68.1392C70.0993 77.0357 71.6866 74.4418 71.6866 72.4381V66.9969C71.6866 66.3965 71.2099 65.9091 70.6226 65.9091ZM64.2376 65.9091H61.3999C60.8127 65.9091 60.3359 66.3965 60.3359 66.9969V69.8991C60.3359 70.4995 60.8127 70.987 61.3999 70.987H63.1736V72.4381C63.1736 73.238 62.5374 74.8593 61.7548 74.8593H61.5773C61.2828 74.8593 61.0457 75.1019 61.0457 75.4036V76.492C61.0457 76.7931 61.2828 77.0357 61.5773 77.0357H61.7548C63.7142 77.0357 65.3015 74.4418 65.3015 72.4381V66.9969C65.3015 66.3965 64.8254 65.9091 64.2376 65.9091Z" fill="#F5F8F7"/>
</g>
</g>
<defs>
<filter id="filter0_d_1378_1812" x="43.1094" y="65.4091" width="31.0781" height="14.1266" filterUnits="userSpaceOnUse" color-interpolation-filters="sRGB">
<feFlood flood-opacity="0" result="BackgroundImageFix"/>
<feColorMatrix in="SourceAlpha" type="matrix" values="0 0 0 0 0 0 0 0 0 0 0 0 0 0 0 0 0 0 127 0" result="hardAlpha"/>
<feOffset dx="1" dy="1"/>
<feGaussianBlur stdDeviation="0.75"/>
<feComposite in2="hardAlpha" operator="out"/>
<feColorMatrix type="matrix" values="0 0 0 0 0 0 0 0 0 0 0 0 0 0 0 0 0 0 0.25 0"/>
<feBlend mode="normal" in2="BackgroundImageFix" result="effect1_dropShadow_1378_1812"/>
<feBlend mode="normal" in="SourceGraphic" in2="effect1_dropShadow_1378_1812" result="shape"/>
</filter>
<linearGradient id="paint0_linear_1378_1812" x1="33.2674" y1="-16.0797" x2="33.9017" y2="104.097" gradientUnits="userSpaceOnUse">
<stop offset="0.682692" stop-color="#023048"/>
<stop offset="1" stop-color="#229EBD"/>
</linearGradient>
<clipPath id="clip0_1378_1812">
<rect width="92" height="92" fill="white"/>
</clipPath>
</defs>
</svg>