<svg width="531" height="538" viewBox="0 0 531 538" fill="none" xmlns="http://www.w3.org/2000/svg">
<path d="M558.87 197.486L451.516 138.484C429.29 126.268 401.434 134.232 389.326 156.263L330.839 262.679C318.731 284.71 326.939 312.495 349.165 324.71L416.261 361.587L387.018 414.795C370.889 444.142 333.704 454.773 304.098 438.501L297.388 434.814C286.233 428.683 272.37 432.646 266.293 443.703L244.361 483.609C238.283 494.666 242.369 508.494 253.523 514.625L260.233 518.313C334.375 559.061 427.142 532.54 467.534 459.047L577.196 259.518C589.304 237.486 581.096 209.701 558.87 197.486ZM317.323 64.7304L209.969 5.72797C187.743 -6.48738 159.887 1.47651 147.779 23.5078L89.2921 129.923C77.1836 151.955 85.3919 179.74 107.618 191.955L174.714 228.831L145.471 282.039C129.341 311.387 92.1568 322.017 62.5505 305.746L55.8408 302.058C44.6861 295.927 30.8228 299.891 24.7457 310.948L2.8133 350.854C-3.2638 361.911 0.821254 375.739 11.976 381.87L18.6857 385.557C92.8273 426.306 185.594 399.784 225.987 326.291L335.649 126.762C347.757 104.731 339.549 76.9458 317.323 64.7304Z" fill="#17171A" fill-opacity="0.6"/>
</svg>
