<svg width="80" height="80" viewBox="0 0 80 80" fill="none" xmlns="http://www.w3.org/2000/svg">
<path d="M72.0469 34.5875C73.189 41.3768 72.144 48.3533 69.0626 54.5099C65.9812 60.6665 61.023 65.6845 54.9038 68.8395C48.7846 71.9944 41.821 73.123 35.0186 72.0623C28.2162 71.0016 21.9268 67.8065 17.0586 62.9383C12.1904 58.0701 8.99534 51.7808 7.93465 44.9783C6.87395 38.1759 8.00255 31.2124 11.1575 25.0932C14.3124 18.9739 19.3304 14.0157 25.487 10.9343C31.6436 7.85296 38.6202 6.8079 45.4094 7.95004C46.0584 8.0648 46.6358 8.43117 47.016 8.96944C47.3962 9.50772 47.5485 10.1744 47.4398 10.8244C47.331 11.4743 46.97 12.0551 46.4353 12.4403C45.9006 12.8255 45.2354 12.984 44.5844 12.8813C40.6411 12.2179 36.6005 12.4218 32.744 13.4788C28.8875 14.5358 25.3076 16.4204 22.2535 19.0016C19.1994 21.5828 16.7445 24.7985 15.0595 28.4249C13.3746 32.0513 12.5001 36.0013 12.4969 40C12.491 46.7319 14.9652 53.23 19.4469 58.2532C21.2645 55.6169 23.5733 53.3559 26.2469 51.5938C26.4752 51.4425 26.7468 51.3703 27.02 51.3884C27.2933 51.4064 27.5531 51.5137 27.7594 51.6938C31.1555 54.6325 35.4964 56.2499 39.9875 56.2499C44.4786 56.2499 48.8195 54.6325 52.2157 51.6938C52.422 51.5137 52.6818 51.4064 52.955 51.3884C53.2283 51.3703 53.4999 51.4425 53.7282 51.5938C56.4044 53.3559 58.7163 55.6168 60.5375 58.2532C65.0227 53.2314 67.5003 46.7331 67.4969 40C67.497 38.463 67.3695 36.9285 67.1157 35.4125C67.0581 35.0873 67.0656 34.7539 67.1377 34.4317C67.2098 34.1094 67.345 33.8045 67.5355 33.5348C67.7261 33.265 67.9682 33.0357 68.2478 32.8601C68.5275 32.6844 68.8392 32.5659 69.1649 32.5114C69.4907 32.457 69.824 32.4675 70.1456 32.5426C70.4672 32.6176 70.7707 32.7557 71.0387 32.9487C71.3067 33.1417 71.5337 33.386 71.7068 33.6672C71.8798 33.9485 71.9954 34.2613 72.0469 34.5875ZM26.2469 37.5C26.2469 40.2195 27.0533 42.8779 28.5642 45.1391C30.0751 47.4003 32.2225 49.1627 34.735 50.2034C37.2475 51.2441 40.0122 51.5164 42.6794 50.9858C45.3466 50.4553 47.7967 49.1457 49.7196 47.2228C51.6426 45.2998 52.9522 42.8498 53.4827 40.1825C54.0133 37.5153 53.741 34.7506 52.7002 32.2381C51.6595 29.7257 49.8972 27.5782 47.636 26.0673C45.3748 24.5565 42.7164 23.75 39.9969 23.75C36.3502 23.75 32.8528 25.1987 30.2742 27.7773C27.6956 30.3559 26.2469 33.8533 26.2469 37.5ZM74.2657 10.7313C74.0335 10.4988 73.7578 10.3144 73.4543 10.1886C73.1508 10.0628 72.8254 9.99807 72.4969 9.99807C72.1684 9.99807 71.843 10.0628 71.5396 10.1886C71.2361 10.3144 70.9603 10.4988 70.7282 10.7313L62.4969 18.9657L59.2657 15.7313C59.0334 15.499 58.7576 15.3148 58.4541 15.1891C58.1507 15.0633 57.8254 14.9986 57.4969 14.9986C57.1684 14.9986 56.8431 15.0633 56.5397 15.1891C56.2362 15.3148 55.9604 15.499 55.7282 15.7313C55.4959 15.9636 55.3116 16.2393 55.1859 16.5428C55.0602 16.8463 54.9955 17.1715 54.9955 17.5C54.9955 17.8285 55.0602 18.1538 55.1859 18.4573C55.3116 18.7608 55.4959 19.0365 55.7282 19.2688L60.7282 24.2688C60.9603 24.5012 61.2361 24.6856 61.5396 24.8114C61.8431 24.9372 62.1684 25.002 62.4969 25.002C62.8254 25.002 63.1508 24.9372 63.4543 24.8114C63.7578 24.6856 64.0335 24.5012 64.2657 24.2688L74.2657 14.2688C74.4981 14.0366 74.6825 13.7609 74.8083 13.4574C74.9341 13.1539 74.9989 12.8286 74.9989 12.5C74.9989 12.1715 74.9341 11.8462 74.8083 11.5427C74.6825 11.2392 74.4981 10.9635 74.2657 10.7313Z" fill="url(#paint0_linear_500_784)"/>
<defs>
<linearGradient id="paint0_linear_500_784" x1="35.5845" y1="-3.85192" x2="36.0556" y2="80.9903" gradientUnits="userSpaceOnUse">
<stop offset="0.0573911" stop-color="#229EBD"/>
<stop offset="0.966223" stop-color="#023048"/>
</linearGradient>
</defs>
</svg>
