<svg width="80" height="80" viewBox="0 0 80 80" fill="none" xmlns="http://www.w3.org/2000/svg">
<path d="M67.5001 15H12.5001C11.174 15 9.90224 15.5268 8.96456 16.4645C8.02687 17.4021 7.50009 18.6739 7.50009 20V70C7.49432 70.9535 7.76405 71.8883 8.27684 72.6921C8.78963 73.496 9.52367 74.1346 10.3907 74.5312C11.0514 74.8389 11.7713 74.9989 12.5001 75C13.6739 74.9972 14.8087 74.5787 15.7032 73.8187L15.7313 73.7969L25.9376 65H67.5001C68.8262 65 70.0979 64.4732 71.0356 63.5355C71.9733 62.5979 72.5001 61.3261 72.5001 60V20C72.5001 18.6739 71.9733 17.4021 71.0356 16.4645C70.0979 15.5268 68.8262 15 67.5001 15ZM50.0001 47.5H30.0001C29.337 47.5 28.7012 47.2366 28.2323 46.7678C27.7635 46.2989 27.5001 45.663 27.5001 45C27.5001 44.337 27.7635 43.7011 28.2323 43.2322C28.7012 42.7634 29.337 42.5 30.0001 42.5H50.0001C50.6631 42.5 51.299 42.7634 51.7679 43.2322C52.2367 43.7011 52.5001 44.337 52.5001 45C52.5001 45.663 52.2367 46.2989 51.7679 46.7678C51.299 47.2366 50.6631 47.5 50.0001 47.5ZM50.0001 37.5H30.0001C29.337 37.5 28.7012 37.2366 28.2323 36.7678C27.7635 36.2989 27.5001 35.663 27.5001 35C27.5001 34.337 27.7635 33.7011 28.2323 33.2322C28.7012 32.7634 29.337 32.5 30.0001 32.5H50.0001C50.6631 32.5 51.299 32.7634 51.7679 33.2322C52.2367 33.7011 52.5001 34.337 52.5001 35C52.5001 35.663 52.2367 36.2989 51.7679 36.7678C51.299 37.2366 50.6631 37.5 50.0001 37.5Z" fill="url(#paint0_linear_500_789)"/>
<defs>
<linearGradient id="paint0_linear_500_789" x1="34.5185" y1="4.51325" x2="34.9357" y2="82.8896" gradientUnits="userSpaceOnUse">
<stop offset="0.0573911" stop-color="#229EBD"/>
<stop offset="0.966223" stop-color="#023048"/>
</linearGradient>
</defs>
</svg>
