<svg width="80" height="80" viewBox="0 0 80 80" fill="none" xmlns="http://www.w3.org/2000/svg">
<path d="M71.7675 68.2315L56.1206 52.5877C60.6557 47.1431 62.9172 40.1596 62.4345 33.09C61.9518 26.0205 58.7622 19.4091 53.5292 14.6314C48.2962 9.85362 41.4226 7.27727 34.3385 7.43827C27.2543 7.59927 20.5049 10.4852 15.4943 15.4958C10.4838 20.5064 7.5978 27.2558 7.4368 34.3399C7.2758 41.4241 9.85216 48.2977 14.6299 53.5307C19.4077 58.7637 26.019 61.9533 33.0886 62.436C40.1581 62.9186 47.1416 60.6572 52.5863 56.1221L68.23 71.769C68.4623 72.0013 68.738 72.1855 69.0415 72.3112C69.345 72.4369 69.6703 72.5016 69.9988 72.5016C70.3272 72.5016 70.6525 72.4369 70.956 72.3112C71.2595 72.1855 71.5352 72.0013 71.7675 71.769C71.9998 71.5367 72.184 71.261 72.3097 70.9575C72.4354 70.654 72.5002 70.3287 72.5002 70.0002C72.5002 69.6717 72.4354 69.3465 72.3097 69.043C72.184 68.7395 71.9998 68.4638 71.7675 68.2315ZM12.4988 35.0002C12.4988 30.5501 13.8184 26.2 16.2907 22.4999C18.763 18.7998 22.277 15.9159 26.3884 14.2129C30.4997 12.51 35.0237 12.0644 39.3883 12.9326C43.7529 13.8007 47.762 15.9436 50.9087 19.0903C54.0553 22.237 56.1983 26.2461 57.0664 30.6107C57.9346 34.9753 57.489 39.4993 55.7861 43.6106C54.0831 47.7219 51.1992 51.236 47.4991 53.7083C43.799 56.1806 39.4488 57.5002 34.9988 57.5002C29.0334 57.4936 23.3143 55.121 19.0962 50.9028C14.878 46.6847 12.5054 40.9656 12.4988 35.0002Z" fill="url(#paint0_linear_500_772)"/>
<defs>
<linearGradient id="paint0_linear_500_772" x1="34.4774" y1="-3.94181" x2="34.9676" y2="81.0575" gradientUnits="userSpaceOnUse">
<stop offset="0.0573911" stop-color="#229EBD"/>
<stop offset="0.966223" stop-color="#023048"/>
</linearGradient>
</defs>
</svg>
